<?xml version="1.0" standalone="no"?>
<!DOCTYPE svg PUBLIC "-//W3C//DTD SVG 20010904//EN"
 "http://www.w3.org/TR/2001/REC-SVG-20010904/DTD/svg10.dtd">
<svg version="1.0" xmlns="http://www.w3.org/2000/svg"
 width="300.000000pt" height="196.000000pt" viewBox="0 0 300.000000 196.000000"
 preserveAspectRatio="xMidYMid meet">
<metadata>
Created by potrace 1.10, written by Peter Selinger 2001-2011
</metadata>
<g transform="translate(0.000000,196.000000) scale(0.100000,-0.100000)"
fill="#000000" stroke="none">
<path d="M660 1950 l-635 -5 -3 -960 c-2 -894 -1 -961 15 -972 26 -20 33 -15
23 13 -13 34 -13 1873 0 1894 8 13 77 15 517 16 279 0 516 -3 525 -6 13 -4 2
-14 -45 -39 -324 -177 -505 -439 -548 -796 -25 -206 35 -468 145 -628 57 -83
63 -80 11 4 -96 156 -140 319 -139 519 1 112 6 152 28 235 97 367 370 630 751
723 22 6 29 9 15 9 -14 -1 -311 -4 -660 -7z"/>
<path d="M1740 1938 c305 -75 564 -307 675 -606 61 -162 79 -341 50 -503 -76
-436 -423 -768 -856 -818 l-74 -8 96 -2 c85 -1 106 3 191 33 174 62 261 116
381 233 208 202 321 489 303 770 -24 377 -238 701 -568 860 -37 18 -48 27 -38
33 7 5 242 9 521 10 l508 1 16 -25 c15 -22 16 -111 11 -948 -2 -507 -8 -934
-12 -947 -6 -21 -5 -22 15 -12 l21 12 0 960 c0 759 -3 961 -12 964 -7 3 -302
6 -655 7 -621 3 -640 2 -573 -14z"/>
<path d="M1320 1926 c-300 -63 -540 -248 -677 -519 -24 -49 -56 -132 -71 -185
-23 -86 -26 -115 -26 -247 0 -173 19 -262 84 -401 35 -76 114 -204 126 -204 3
0 -9 20 -26 45 -46 67 -106 199 -136 300 -24 80 -27 107 -28 245 -1 170 13
237 74 382 59 138 188 299 326 406 51 39 226 119 304 138 106 27 367 27 460 0
91 -26 244 -99 310 -148 346 -257 470 -723 297 -1118 -98 -225 -263 -394 -484
-496 -138 -64 -216 -79 -403 -78 -150 1 -172 3 -245 27 -43 14 -81 25 -83 23
-7 -7 130 -48 206 -62 151 -27 313 -13 468 40 309 105 553 381 626 709 29 133
22 344 -16 472 -96 321 -329 555 -651 651 -75 22 -113 27 -230 30 -92 2 -162
-2 -205 -10z"/>
<path d="M1278 1612 c-98 -34 -111 -47 -112 -111 -2 -91 43 -103 359 -103 186
0 238 3 268 15 45 19 63 53 50 93 -14 41 -50 63 -121 75 -35 5 -97 21 -137 34
-101 34 -202 33 -307 -3z m301 -21 c36 -17 98 -35 136 -41 39 -6 77 -15 84
-19 7 -5 14 -26 15 -47 1 -29 -3 -39 -16 -42 -13 -2 -18 3 -18 19 0 29 -27 59
-53 59 -30 0 -57 -29 -57 -62 l0 -28 -150 0 -150 0 0 27 c0 14 -7 35 -17 45
-33 37 -93 12 -93 -38 0 -27 -25 -32 -54 -11 -14 10 -16 21 -10 64 4 35 10 50
19 47 7 -3 39 6 71 19 77 32 87 34 163 36 51 1 78 -5 130 -28z m-229 -110 c18
-35 -18 -79 -54 -65 -22 8 -31 51 -16 69 18 21 57 19 70 -4z m410 4 c15 -19 6
-61 -16 -69 -22 -8 -64 20 -64 42 0 39 55 57 80 27z"/>
<path d="M1342 1585 c-45 -20 -32 -35 29 -35 46 0 49 2 49 25 0 30 -25 33 -78
10z"/>
<path d="M1440 1591 c0 -34 13 -41 76 -41 72 0 87 18 31 38 -39 14 -107 16
-107 3z"/>
<path d="M959 1293 c-68 -28 -75 -83 -19 -141 16 -18 30 -35 30 -39 0 -22 -30
-116 -53 -169 -39 -88 -39 -114 -2 -114 17 0 32 10 47 35 30 46 37 44 27 -7
-19 -99 -8 -172 33 -215 30 -32 15 -45 -43 -37 -40 5 -53 3 -69 -11 -17 -16
-20 -31 -20 -121 0 -77 4 -106 15 -117 12 -12 43 -15 147 -15 73 1 143 -2 155
-6 15 -5 29 0 47 16 25 22 26 24 11 52 -9 16 -13 37 -9 45 4 9 8 44 9 79 2 74
-8 87 -64 78 -22 -3 -52 -1 -66 4 -23 9 -25 13 -15 25 7 8 17 15 22 15 5 0 26
16 46 35 20 19 40 35 43 35 4 0 19 -16 34 -35 14 -20 40 -41 56 -48 l29 -12
-26 -36 c-22 -31 -26 -48 -26 -110 -1 -90 5 -112 38 -134 20 -13 32 -14 56 -6
17 6 41 8 53 5 13 -3 26 -1 29 5 16 25 35 123 30 150 -3 15 -1 38 6 51 18 34
-12 61 -64 58 -59 -4 -53 13 13 40 60 24 100 57 163 132 26 32 38 40 41 30 31
-101 71 -160 118 -175 15 -5 17 -10 9 -19 -7 -10 -38 -12 -109 -10 -99 4 -100
3 -121 -24 -20 -24 -22 -36 -18 -114 3 -67 8 -92 23 -108 19 -21 17 -21 245
-20 98 1 229 0 247 -1 44 -3 65 32 42 70 -9 13 -9 26 -2 48 7 19 7 35 1 47 -7
12 -6 27 2 47 22 51 6 58 -132 56 -90 -2 -122 1 -125 11 -3 6 2 12 10 12 8 0
34 9 59 20 117 51 254 238 205 278 -22 18 -43 5 -77 -48 -35 -55 -97 -115
-129 -125 -13 -4 -28 -1 -36 5 -18 15 -19 79 -4 133 8 31 14 37 27 31 9 -3 37
-11 61 -17 41 -10 45 -9 67 16 42 50 66 185 44 251 -13 39 -59 76 -95 76 -56
0 -153 -68 -222 -155 l-31 -40 -11 41 c-11 42 -45 94 -62 94 -5 0 -31 14 -57
30 -27 17 -62 30 -78 30 -67 -1 -168 -71 -221 -156 -31 -49 -43 -55 -43 -20 0
35 -33 71 -90 95 -48 21 -50 23 -50 62 0 64 -13 79 -68 78 -26 -1 -63 -8 -83
-16z m123 -42 c-2 -19 -8 -45 -12 -57 -8 -20 -3 -24 62 -51 39 -15 76 -36 82
-45 8 -13 4 -37 -13 -95 -25 -82 -60 -236 -61 -265 0 -29 26 -10 62 45 24 35
37 70 42 107 10 74 66 188 120 243 77 80 163 109 200 68 10 -11 31 -23 47 -26
37 -8 65 -44 72 -92 6 -36 -10 -134 -28 -177 -8 -18 -7 -19 21 -2 20 12 37 38
57 87 48 117 170 229 249 229 66 0 87 -98 48 -224 -18 -58 -24 -66 -46 -66
-31 0 -84 27 -84 42 0 6 25 48 55 93 58 87 65 105 39 105 -63 0 -164 -225
-164 -367 0 -78 21 -101 74 -83 49 16 120 82 163 152 25 41 39 56 41 44 9 -42
-103 -181 -182 -226 -128 -74 -226 -8 -226 152 l0 48 -34 -17 c-19 -8 -39 -27
-45 -40 -20 -44 -105 -126 -156 -149 -28 -14 -69 -24 -94 -24 -37 0 -49 5 -77
35 -18 20 -36 51 -40 70 -3 19 -10 35 -15 35 -5 0 -9 -4 -9 -8 0 -22 -75 -102
-115 -123 -50 -27 -70 -22 -92 22 -25 49 -16 115 45 336 19 66 19 74 5 89 -19
19 -25 13 -48 -51 -27 -75 -104 -225 -115 -225 -14 0 -15 -3 30 92 43 93 76
211 59 216 -28 10 -69 56 -69 78 0 27 22 42 83 54 65 13 72 10 69 -29z m-86
-743 c1 -37 4 -85 8 -108 5 -32 3 -40 -9 -40 -9 0 -15 9 -15 24 0 38 -12 86
-21 86 -5 0 -9 -25 -9 -55 0 -42 -3 -55 -15 -55 -12 0 -15 19 -15 113 l0 114
38 -6 37 -6 1 -67z m62 -36 c2 -95 0 -112 -13 -112 -13 0 -15 18 -15 116 0 88
3 115 13 112 8 -3 13 -38 15 -116z m200 101 c2 -8 -5 -13 -17 -13 -17 0 -21
-6 -21 -35 0 -24 5 -35 15 -35 8 0 15 -4 15 -10 0 -5 -7 -10 -15 -10 -11 0
-15 -11 -15 -40 0 -29 4 -40 15 -40 8 0 15 -7 15 -15 0 -10 -10 -15 -30 -15
l-30 0 0 113 0 112 32 0 c17 0 33 -6 36 -12z m141 3 c8 -9 11 -47 9 -106 -2
-76 -6 -95 -20 -104 -13 -8 -23 -8 -35 0 -15 9 -19 28 -21 104 -3 96 5 120 38
120 10 0 23 -6 29 -14z m99 -3 c2 -7 -4 -13 -15 -13 -14 0 -18 -8 -18 -40 -1
-26 3 -40 12 -40 16 0 17 -17 1 -22 -8 -3 -11 -21 -9 -51 2 -40 0 -47 -16 -47
-16 0 -18 9 -16 112 2 62 3 113 3 113 0 1 12 1 27 0 14 0 28 -6 31 -12z m128
9 c17 -11 26 -49 14 -57 -7 -4 -14 2 -17 14 -12 47 -23 16 -23 -64 0 -50 4
-85 10 -85 6 0 10 9 10 20 0 11 7 20 15 20 12 0 14 -7 9 -27 -9 -39 -13 -43
-33 -43 -33 0 -41 22 -41 115 0 104 16 134 56 107z m64 -42 c0 -38 4 -50 15
-50 11 0 15 12 15 50 0 38 4 50 15 50 12 0 15 -19 15 -115 0 -96 -3 -115 -15
-115 -12 0 -15 13 -15 55 0 42 -3 55 -15 55 -12 0 -15 -13 -15 -55 0 -42 -3
-55 -15 -55 -12 0 -15 19 -15 108 0 60 3 112 7 115 16 17 23 3 23 -43z m157
20 c14 -27 17 -108 7 -159 -8 -39 -49 -54 -71 -26 -20 28 -18 179 3 200 22 21
46 15 61 -15z m63 -85 c0 -96 -3 -115 -15 -115 -12 0 -15 19 -15 115 0 96 3
115 15 115 12 0 15 -19 15 -115z m92 90 c9 -20 9 -28 -1 -38 -9 -9 -13 -7 -17
11 -13 47 -24 18 -24 -63 0 -50 4 -85 10 -85 6 0 10 9 10 20 0 11 7 20 15 20
17 0 20 -23 5 -51 -14 -25 -46 -25 -60 0 -5 11 -10 54 -10 96 0 42 5 85 10 96
15 27 48 24 62 -6z m88 9 c0 -8 -8 -14 -17 -14 -14 0 -18 -8 -18 -35 0 -27 4
-35 18 -35 9 0 17 -4 17 -10 0 -5 -6 -10 -14 -10 -8 0 -15 -14 -18 -36 -3 -29
-1 -38 14 -42 30 -7 21 -32 -11 -32 l-30 0 -3 111 c-2 61 -2 111 -1 112 1 1
15 2 32 3 20 1 31 -4 31 -12z m-932 -93 c3 -103 -4 -121 -49 -121 l-29 0 0
111 0 110 38 -3 37 -3 3 -94z"/>
<path d="M1497 1160 c-73 -57 -163 -371 -131 -454 17 -44 78 5 117 94 l24 55
-21 28 c-41 55 -16 209 42 261 20 17 21 36 3 36 -5 0 -20 -9 -34 -20z m-47
-269 c18 -37 19 -42 4 -78 -17 -41 -42 -73 -56 -73 -5 0 -7 25 -4 54 5 57 23
136 31 136 3 0 14 -18 25 -39z"/>
<path d="M1532 1093 c-11 -27 -23 -65 -26 -86 -7 -39 0 -97 12 -97 8 0 63 187
62 213 0 34 -28 16 -48 -30z"/>
<path d="M950 525 c0 -19 4 -35 9 -35 11 0 21 38 14 56 -10 26 -23 14 -23 -21z"/>
<path d="M1360 475 c0 -50 4 -85 10 -85 6 0 10 35 10 85 0 50 -4 85 -10 85 -6
0 -10 -35 -10 -85z"/>
<path d="M1800 475 c0 -65 3 -86 13 -82 8 2 12 28 12 82 0 54 -4 80 -12 83
-10 3 -13 -18 -13 -83z"/>
<path d="M1110 475 c0 -65 3 -86 13 -82 8 2 12 28 12 82 0 54 -4 80 -12 83
-10 3 -13 -18 -13 -83z"/>
<path d="M1220 37 c0 -15 108 -37 177 -35 53 1 62 3 28 5 -49 3 -153 19 -187
29 -10 3 -18 3 -18 1z"/>
</g>
</svg>
